<svg width="58" height="58" fill="none" xmlns="http://www.w3.org/2000/svg">
    <defs>
        <style>
            .the-pco-logo{fill:#000}
            @media (prefers-color-scheme: dark) {
                .the-pco-logo{fill:#fff}
            }
        </style>
    </defs>
    <path class="the-pco-logo" fill-rule="evenodd" clip-rule="evenodd" d="M58 0H0v6.104A15.037 15.037 0 0 1 5.428 8.63c15.608-6.692 28.88-9.393 30.43-6.009 1.544 3.375-9.108 11.613-24.303 19.03C11.18 28.395 6.375 33.96 0 35.483V58h58V0Zm0 58H7.716C21.198 45.272 38.64 36.696 58 34.314V58ZM8.47 11.614a15.033 15.033 0 0 1 2.876 6.525c10.968-5.55 18.687-10.801 17.94-12.387-.743-1.58-9.627.99-20.816 5.862ZM46.98 3.48a1.74 1.74 0 1 1 3.48 0 1.74 1.74 0 0 1-3.48 0ZM34.51 19.72a5.51 5.51 0 1 0 0 11.02 5.51 5.51 0 0 0 0-11.02Z"/>
</svg>